<?xml version="1.0" encoding="iso-8859-1"?>
<!-- Uploaded to: SVG Repo, www.svgrepo.com, Generator: SVG Repo Mixer Tools -->
<svg fill="#000000" height="800px" width="800px" version="1.1" id="Layer_1" xmlns="http://www.w3.org/2000/svg" xmlns:xlink="http://www.w3.org/1999/xlink" 
	 viewBox="0 0 512.001 512.001" xml:space="preserve">
<g>
	<g>
		<path d="M503.18,37.508H8.82c-4.871,0-8.82,3.949-8.82,8.82v55.271c0,4.871,3.949,8.82,8.82,8.82c4.871,0,8.82-3.949,8.82-8.82
			V55.148H494.36v323.393H17.64V132.174c0-4.871-3.949-8.82-8.82-8.82c-4.871,0-8.82,3.949-8.82,8.82V387.36
			c0,4.871,3.949,8.82,8.82,8.82h204.257v22.344h-44.131c-2.744,0-5.332,1.277-7.002,3.455l-29.368,38.33
			c-2.042,2.665-2.393,6.257-0.908,9.268c1.486,3.01,4.552,4.917,7.91,4.917h232.843c3.356,0,6.423-1.906,7.91-4.917
			c1.485-3.01,1.134-6.603-0.908-9.268l-29.369-38.33c-1.669-2.179-4.257-3.455-7.001-3.455h-44.13V396.18h204.257
			c4.871,0,8.82-3.949,8.82-8.82V46.328C512,41.457,508.051,37.508,503.18,37.508z M230.717,396.18h50.567v22.344h-50.567V396.18z
			 M338.701,436.163l15.852,20.69H157.449l15.852-20.69H338.701z"/>
	</g>
</g>
<g>
	<g>
		<path d="M463.83,76.859h-66.323c-4.871,0-8.82,3.949-8.82,8.82c0,4.871,3.949,8.82,8.82,8.82h57.503v244.693H56.989V94.498
			h300.535c4.871,0,8.82-3.949,8.82-8.82c0-4.871-3.948-8.82-8.819-8.82H48.169c-4.871,0-8.82,3.949-8.82,8.82v262.333
			c0,4.871,3.949,8.82,8.82,8.82H463.83c4.871,0,8.82-3.949,8.82-8.82V85.679C472.65,80.808,468.701,76.859,463.83,76.859z"/>
	</g>
</g>
<g>
	<g>
		<path d="M103.515,117.474c-4.871,0-8.82,3.949-8.82,8.82v121.713c0,4.871,3.949,8.82,8.82,8.82c4.871,0,8.82-3.949,8.82-8.82
			V126.294C112.335,121.423,108.386,117.474,103.515,117.474z"/>
	</g>
</g>
<g>
	<g>
		<path d="M103.515,269.175c-4.871,0-8.82,3.949-8.82,8.82v28.223c0,4.871,3.949,8.82,8.82,8.82c4.871,0,8.82-3.949,8.82-8.82
			v-28.223C112.335,273.124,108.386,269.175,103.515,269.175z"/>
	</g>
</g>
<g>
	<g>
		<path d="M147.614,171.569c-4.871,0-8.82,3.949-8.82,8.82v125.829c0,4.871,3.949,8.82,8.82,8.82c4.871,0,8.82-3.949,8.82-8.82
			V180.389C156.434,175.518,152.485,171.569,147.614,171.569z"/>
	</g>
</g>
<g>
	<g>
		<path d="M191.713,215.08c-4.871,0-8.82,3.949-8.82,8.82v82.318c0,4.871,3.949,8.82,8.82,8.82c4.871,0,8.82-3.949,8.82-8.82V223.9
			C200.533,219.029,196.584,215.08,191.713,215.08z"/>
	</g>
</g>
<g>
	<g>
		<path d="M235.812,183.329c-4.871,0-8.82,3.949-8.82,8.82v114.069c0,4.871,3.949,8.82,8.82,8.82c4.871,0,8.82-3.949,8.82-8.82
			V192.149C244.632,187.278,240.683,183.329,235.812,183.329z"/>
	</g>
</g>
<g>
	<g>
		<path d="M279.91,163.337c-4.871,0-8.82,3.949-8.82,8.82v134.061c0,4.871,3.949,8.82,8.82,8.82c4.871,0,8.82-3.949,8.82-8.82
			V172.157C288.73,167.286,284.781,163.337,279.91,163.337z"/>
	</g>
</g>
<g>
	<g>
		<path d="M324.009,224.488c-4.871,0-8.82,3.949-8.82,8.82v72.91c0,4.871,3.949,8.82,8.82,8.82c4.871,0,8.82-3.949,8.82-8.82v-72.91
			C332.829,228.437,328.88,224.488,324.009,224.488z"/>
	</g>
</g>
<g>
	<g>
		<path d="M368.108,259.767c-4.871,0-8.82,3.949-8.82,8.82v37.631c0,4.871,3.949,8.82,8.82,8.82c4.871,0,8.82-3.949,8.82-8.82
			v-37.631C376.928,263.716,372.979,259.767,368.108,259.767z"/>
	</g>
</g>
<g>
	<g>
		<path d="M412.207,163.337c-4.871,0-8.82,3.949-8.82,8.82v134.061c0,4.871,3.949,8.82,8.82,8.82c4.871,0,8.82-3.949,8.82-8.82
			V172.157C421.027,167.286,417.078,163.337,412.207,163.337z"/>
	</g>
</g>
</svg>